<?xml version="1.0" encoding="UTF-8"?><svg id="Layer_2" xmlns="http://www.w3.org/2000/svg" viewBox="0 0 822.66 240.68"><defs><style>.cls-1{fill:#00ce7c;}.cls-2{fill:#ffc844;}.cls-3{fill:#ff8189;}.cls-4{fill:#7e57c5;}.cls-5{fill:#243746;}</style></defs><g id="Layer_1-2"><g><g><path class="cls-5" d="M386.92,.26V184.23h-33.52v-15.63c-9.07,11.6-23.18,19.16-41.07,19.16-35.28,0-63.01-28.73-63.01-67.29s27.73-67.29,63.01-67.29c17.89,0,32,7.32,41.07,18.91V.26h33.52Zm-32.5,119.95c0-21.92-16.13-37.29-36.3-37.29s-35.78,15.37-35.78,37.29,14.87,37.8,35.78,37.8,36.3-15.61,36.3-37.8Z"/><path class="cls-5" d="M411.62,19.15c0-10.59,8.82-19.15,19.91-19.15s19.91,8.57,19.91,19.15-8.82,19.67-19.91,19.67-19.91-8.58-19.91-19.67Zm2.78,37.56h33.52v127.52h-33.52V56.71Z"/><path class="cls-5" d="M604.93,56.71v122.99c0,35.53-25.96,60.98-65.78,60.98-31.26,0-50.91-14.37-61.49-33.52l28.98-10.33c6.56,10.33,17.15,16.39,33.27,16.39,20.91,0,31.5-14.62,31.76-33.52v-15.38c-9.58,11.85-23.45,18.41-40.32,18.41-36.54,0-63.01-28.48-63.01-64.77,0-38.3,26.47-64.77,63.01-64.77,16.88,0,30.74,6.56,40.32,18.41v-14.87h33.26Zm-32.52,61.24c0-20.41-14.87-34.78-35.28-34.78s-35.78,14.11-35.78,34.78,14.61,34.78,35.78,34.78,35.28-14.11,35.28-34.78Z"/><path class="cls-5" d="M629.62,19.15c0-10.59,8.82-19.15,19.91-19.15s19.91,8.57,19.91,19.15-8.81,19.67-19.91,19.67-19.91-8.58-19.91-19.67Zm2.78,37.56h33.52v127.52h-33.52V56.71Z"/><path class="cls-5" d="M686.32,120.47c0-38.3,28.98-67.29,68.3-67.29s68.04,28.99,68.04,67.29-28.72,67.29-68.04,67.29-68.3-29.24-68.3-67.29Zm104.08,0c0-21.17-14.61-37.04-35.78-37.04s-35.78,15.87-35.78,37.04,14.37,37.04,35.78,37.04,35.78-15.87,35.78-37.04Z"/></g><g><path class="cls-4" d="M99.98,0h-33.74c0,36.52-29.71,66.24-66.23,66.24v33.74C55.13,99.98,99.98,55.13,99.98,0Z"/><path class="cls-1" d="M149.49,170.88c-11.68-42.83,6.41-89.91,46.64-113.03l16.82,29.25c-31.68,18.21-42.69,58.82-24.43,90.44l-29.26,16.81c-4.33-7.55-7.58-15.44-9.77-23.48Z"/><path class="cls-2" d="M84.38,121.57c-2.28-44.34,25.43-86.47,69.67-100.48l10.2,32.17c-34.84,11.03-54.25,48.36-43.16,83.15l-32.18,10.18c-2.62-8.3-4.11-16.7-4.54-25.02Z"/><path class="cls-3" d="M16.27,153.27c22.1,38.51,68.21,58.92,112.98,46.75l-8.84-32.57c-35.26,9.59-71.8-11.28-81.31-46.53l-32.56,8.86c2.29,8.4,5.59,16.27,9.74,23.49Z"/></g></g></g></svg>