<?xml version="1.0" encoding="UTF-8"?><svg id="Layer_2" xmlns="http://www.w3.org/2000/svg" viewBox="0 0 212.95 203.53"><defs><style>.cls-1{fill:#00ce7c;}.cls-2{fill:#ffc844;}.cls-3{fill:#ff8189;}.cls-4{fill:#7e57c5;}</style></defs><g id="Layer_1-2"><g><path class="cls-4" d="M99.98,0h-33.74c0,36.52-29.71,66.24-66.23,66.24v33.74C55.13,99.98,99.98,55.13,99.98,0Z"/><path class="cls-1" d="M149.49,170.88c-11.68-42.83,6.41-89.91,46.64-113.03l16.82,29.25c-31.68,18.21-42.69,58.82-24.43,90.44l-29.26,16.81c-4.33-7.55-7.58-15.44-9.77-23.48Z"/><path class="cls-2" d="M84.38,121.57c-2.28-44.34,25.43-86.47,69.67-100.48l10.2,32.17c-34.84,11.03-54.25,48.36-43.16,83.15l-32.18,10.18c-2.62-8.3-4.11-16.7-4.54-25.02Z"/><path class="cls-3" d="M16.27,153.27c22.1,38.51,68.21,58.92,112.98,46.75l-8.84-32.57c-35.26,9.59-71.8-11.28-81.31-46.53l-32.56,8.86c2.29,8.4,5.59,16.27,9.74,23.49Z"/></g></g></svg>